<svg xmlns="http://www.w3.org/2000/svg" width="70" height="70" viewBox="0 0 50 50" fill="none">
    <!--<path d="M25.0001 50C38.8072 50 50.0001 38.8071 50.0001 25C50.0001 11.1929 38.8072 0 25.0001 0C11.1929 0 0 11.1929 0 25C0 38.8071 11.1929 50 25.0001 50Z" fill="white"/>-->
    <path d="M15.7423 16.2185C15.7065 16.0485 15.6482 15.8168 15.5973 15.6702C15.5848 15.6218 15.5707 15.5743 15.5548 15.5285C15.2832 14.7352 14.5398 14.166 13.6657 14.166C12.7307 14.166 11.9457 14.8168 11.7273 15.6968C11.6873 15.8552 11.6665 16.0218 11.6665 16.1935C11.6665 16.5377 11.8557 17.1027 11.8682 17.146L12.2507 18.581L12.7623 20.6935C13.1215 22.1743 13.4798 23.6568 13.8382 25.1385L13.839 25.1402C14.4915 27.8393 15.1448 30.5393 15.8032 33.2377C16.1023 34.4635 16.5557 35.5693 18.009 35.796C19.4932 36.0268 20.2907 35.1385 20.969 34.0035L21.084 33.811C21.7049 32.7718 22.3265 31.7302 23.0157 30.7385C24.3007 28.886 25.4765 29.331 26.7465 31.2127C27.1715 31.8435 27.564 32.4968 27.9565 33.1501C28.264 33.661 28.5707 34.1718 28.8932 34.6718C29.4891 35.5943 30.3707 35.9477 31.4441 35.796C32.5091 35.6452 33.1666 34.9752 33.4182 33.9752L33.6216 33.1651C34.9766 27.7677 36.3282 21.9368 37.6041 16.5193C37.9707 14.9627 36.6716 13.8702 35.1349 14.2893C34.6832 14.4127 34.2457 14.5935 33.8099 14.7735L33.8074 14.7743C33.7041 14.8177 33.5999 14.8602 33.4966 14.9018C32.6849 15.2302 31.8774 15.5727 31.0699 15.9152L31.0691 15.916C29.2549 16.6852 27.4407 17.4543 25.5765 18.066C23.5907 18.7168 21.484 19.126 19.4024 19.3035C17.294 19.4835 16.3648 18.5793 15.8148 16.5318C15.7873 16.431 15.7648 16.3252 15.7423 16.2185Z" fill="#5C2799"/>
</svg>