<svg height="511pt" viewBox="-21 0 511 511.95" width="511pt" xmlns="http://www.w3.org/2000/svg"><path d="m273.074219 210.351562c0 43.960938-35.636719 79.597657-79.597657 79.597657-43.964843 0-79.601562-35.636719-79.601562-79.597657 0-43.964843 35.636719-79.601562 79.601562-79.601562 43.960938 0 79.597657 35.636719 79.597657 79.601562zm0 0" fill="#6dcc6d"/><path d="m331.273438 423.75c-.398438-.398438-.796876-.800781-1.199219-1.199219-3.199219-3-6-6-8.597657-9.402343h-196.800781c-6 0-10.800781-4.796876-10.800781-10.796876v-76c0-6 4.800781-10.800781 10.800781-10.800781h196.800781c3-3.800781 6.199219-7.402343 9.796876-10.601562v-45.800781h-74.796876c-2.402343 3.203124-5.203124 6-8 8.800781-14.800781 14-34.601562 22-55 22-20.203124.199219-39.601562-7.597657-54.402343-21.398438-32.199219-30-34-80.402343-4-112.601562s80.402343-34 112.601562-4c3.199219 3 6 6 8.597657 9.402343h74.800781v-70.402343c0-24.398438-19.800781-44.199219-44.199219-44.199219h-174c-24.398438 0-44.199219 19.800781-44.199219 44.199219v371.800781c0 8.199219 2.398438 16.398438 6.800781 23.398438.199219.203124 12 20.800781 37.398438 20.800781h174c25.800781 0 37.199219-20.597657 37.398438-20.800781 4.402343-7 6.800781-15 6.800781-23.398438v-39zm0 0" fill="#6d6c6b"/><path d="m124.675781 413.148438c-6 0-10.800781-4.796876-10.800781-10.796876v-76c0-6 4.800781-10.800781 10.800781-10.800781h185.800781v-56.402343h-54c-2.402343 3.203124-5.203124 6-8 8.800781-14.800781 14-34.601562 22-55 22-20.203124.199219-39.601562-7.597657-54.402343-21.398438-32.199219-30-34-80.402343-4-112.601562s80.402343-34 112.601562-4c3.199219 3 6 6 8.597657 9.402343h54v-68.402343c0-14-11.398438-25.398438-25.398438-25.398438h-50c-4.601562 0-9 2.199219-12 5.800781-10 12.796876-28.398438 15-41.199219 4.796876-1.800781-1.398438-3.402343-3-4.800781-4.796876-2.800781-3.601562-7.199219-5.800781-12-5.800781h-50c-14 0-25.398438 11.398438-25.398438 25.398438v367.800781c0 14 11.398438 25.398438 25.398438 25.398438h170c14 0 25.398438-11.398438 25.398438-25.398438v-47.601562zm0 0" fill="#acdef9"/><path d="m222.675781 192.949219c-.601562 0-1.199219 0-1.800781.199219v1.800781 19 1.800781c6.199219 1 12.199219-3.199219 13.199219-9.398438 1-6.203124-3.199219-12.203124-9.398438-13.203124-.800781-.199219-1.402343-.199219-2-.199219zm0 0" fill="#f9d0b4"/><path d="m166.074219 213.949219v-19c0-.597657 0-1.199219 0-1.800781-6.199219-1-12.199219 3.203124-13.199219 9.402343s3.199219 12.199219 9.398438 13.199219c1.203124.199219 2.601562.199219 3.800781 0 0-.601562 0-1.199219 0-1.800781zm0 0" fill="#f9d0b4"/><path d="m197.675781 180.550781c-10 12.597657-24.800781 10.800781-29.800781 9.800781-.800781-.203124-1.601562.398438-1.800781 1.199219v.199219 22c0 15.199219 12.199219 27.398438 27.402343 27.398438 15.199219 0 27.398438-12.199219 27.398438-27.398438v-24.398438c0-.203124 0-.203124 0-.402343 0-.800781-.601562-1.398438-1.398438-1.398438-11.402343-.402343-17.402343-4.800781-19.800781-7.199219-.402343-.402343-1.402343-.402343-2 .199219zm0 0" fill="#f9d0b4"/><path d="m164.273438 192.949219c.601562 0 1.203124 0 1.800781.199219v-1.398438c0-.800781.601562-1.398438 1.402343-1.398438h.199219c5 1 19.800781 2.796876 29.800781-9.800781.597657-.601562 1.398438-.800781 2-.199219 0 0 0 0 .199219.199219 2.398438 2.199219 8.398438 6.800781 19.800781 7.199219.796876 0 1.398438.601562 1.398438 1.398438v.402343 3.597657c3.601562-.597657 7.199219.601562 9.800781 3v-20.597657c0-8.601562-7-15.601562-15.601562-15.601562-2.800781 0-5.597657.800781-8 2.199219-2.800781-4.796876-8-7.597657-13.398438-7.597657h-8c-15.601562 0-28.199219 12.597657-28.402343 28.398438v12.601562c2-1.800781 4.402343-2.601562 7-2.601562zm0 0" fill="#6d6c6b"/><path d="m193.476562 241.351562c-4.203124 0-8.402343-1-12.203124-3v10.199219l4.402343 12.398438c.199219.800781 1 1.199219 1.800781 1.199219h13.199219c.800781 0 1.398438-.398438 1.800781-1.199219l4.398438-12.398438v-10.601562c-4.398438 2.199219-8.800781 3.402343-13.398438 3.402343zm0 0" fill="#f9d0b4"/><path d="m240.675781 260.148438-21.402343-5.398438-12.796876-6.398438-4.402343 12.398438c-.199219.800781-1 1.199219-1.800781 1.199219h-13.199219c-.800781 0-1.398438-.398438-1.800781-1.199219l-4.398438-12.398438-12.800781 6.398438-21.398438 5.398438c-4 1-7.199219 4.402343-8 8.402343 30.800781 28.800781 78.800781 28.597657 109.199219-.601562-.398438-3.800781-3.398438-6.800781-7.199219-7.800781zm0 0" fill="#e9e9ea"/><path d="m463.875 364.351562c0 43.960938-35.636719 79.597657-79.601562 79.597657-43.960938 0-79.597657-35.636719-79.597657-79.597657 0-43.964843 35.636719-79.601562 79.597657-79.601562 43.964843 0 79.601562 35.636719 79.601562 79.601562zm0 0" fill="#ffcd29"/><path d="m413.476562 346.949219c-.601562 0-1.203124 0-1.800781.199219v1.800781 19 1.800781c6.199219 1 12.199219-3.199219 13.199219-9.398438 1-6.203124-3.199219-12.203124-9.398438-13.203124-.800781-.199219-1.402343-.199219-2-.199219zm0 0" fill="#f9d0b4"/><path d="m356.875 367.949219v-19c0-.597657 0-1.199219 0-1.800781-6.199219-1-12.199219 3.203124-13.199219 9.402343s3.199219 12.199219 9.398438 13.199219c1.199219.199219 2.601562.199219 3.800781 0 0-.601562 0-1.199219 0-1.800781zm0 0" fill="#f9d0b4"/><path d="m388.476562 334.550781c-10 12.597657-24.800781 10.800781-29.800781 9.800781-.800781-.203124-1.601562.398438-1.800781 1.199219v.199219 22c0 15.199219 12.199219 27.398438 27.398438 27.398438 15.203124 0 27.402343-12.199219 27.402343-27.398438v-24.398438c0-.203124 0-.203124 0-.402343 0-.800781-.601562-1.398438-1.402343-1.398438-11.398438-.402343-17.398438-4.800781-19.796876-7.199219-.402343-.402343-1.402343-.402343-2 .199219zm0 0" fill="#f9d0b4"/><path d="m355.273438 346.949219c.601562 0 1.203124 0 1.800781.199219v-1.398438c0-.800781.601562-1.398438 1.402343-1.398438h.199219c5 1 19.800781 2.796876 29.800781-9.800781.597657-.601562 1.398438-.800781 2-.199219 0 0 0 0 .199219.199219 2.398438 2.199219 8.398438 6.800781 19.800781 7.199219.796876 0 1.398438.601562 1.398438 1.398438v.402343 3.597657c3.601562-.597657 7.199219.601562 9.800781 3v-20.597657c0-8.601562-7-15.601562-15.601562-15.601562-2.800781 0-5.597657.800781-8 2.199219-2.800781-4.796876-8-7.597657-13.398438-7.597657h-8c-15.601562 0-28.199219 12.597657-28.402343 28.398438v12.601562c1.800781-1.800781 4.402343-2.601562 7-2.601562zm0 0" fill="#6d6c6b"/><path d="m384.273438 395.351562c-4.199219 0-8.398438-1-12.199219-3v10.199219l4.402343 12.398438c.199219.800781 1 1.199219 1.796876 1.199219h13.203124c.796876 0 1.398438-.398438 1.796876-1.199219l4.402343-12.398438v-10.601562c-4.199219 2.199219-8.800781 3.402343-13.402343 3.402343zm0 0" fill="#f9d0b4"/><path d="m431.476562 414.148438-21.203124-5.398438-12.796876-6.398438-4.402343 12.398438c-.199219.800781-1 1.199219-1.800781 1.199219h-13.199219c-.800781 0-1.398438-.398438-1.800781-1.199219l-4.398438-12.398438-12.800781 6.398438-21.199219 5.398438c-4 1-7.199219 4.402343-8 8.402343 30.800781 28.800781 78.800781 28.597657 109.199219-.601562-.597657-3.800781-3.800781-6.800781-7.597657-7.800781zm0 0" fill="#e9e9ea"/><path d="m453.273438 161.75h-196.796876c22.199219 28.800781 22.199219 68.800781 0 97.601562h196.796876c6 0 10.800781-4.800781 10.800781-10.800781v-76c0-6-4.800781-10.800781-10.800781-10.800781zm0 0" fill="#e9e9ea"/><path d="m124.675781 315.75h196.800781c-22.203124 28.800781-22.203124 68.800781 0 97.601562h-196.800781c-6 0-10.800781-4.800781-10.800781-10.800781v-76c0-6 4.800781-10.800781 10.800781-10.800781zm0 0" fill="#e9e9ea"/><path d="m22.675781 383.949219h-3.601562v-3.597657c0-2.800781-2.199219-5-5-5s-5 2.199219-5 5v3.597657h-3.597657c-2.800781 0-5 2.199219-5 5s2.199219 5 5 5h3.597657v3.601562c0 2.800781 2.199219 5 5 5s5-2.199219 5-5v-3.601562h3.601562c2.800781 0 5-2.199219 5-5s-2.199219-5-5-5zm0 0" fill="#55acd5"/><path d="m308.875 3.949219c0-.398438-.199219-.597657-.199219-1-.199219-.199219-.199219-.597657-.402343-.800781-.199219-.199219-.398438-.597657-.597657-.796876-2-1.800781-5-1.800781-7 0-.199219.199219-.402343.398438-.601562.796876-.199219.203124-.398438.601562-.398438.800781-.199219.402343-.199219.601562-.199219 1 0 .402343-.203124.601562-.203124 1 0 .402343 0 .601562.203124 1 0 .402343.199219.601562.199219 1 .199219.402343.199219.601562.398438.800781s.402343.601562.601562.800781c2 2 5 2 7 0 .199219-.199219.398438-.402343.597657-.800781.203124-.199219.402343-.601562.402343-.800781.199219-.199219.199219-.597657.199219-1 0-.398438 0-.597657.199219-1-.199219-.398438-.199219-.800781-.199219-1zm0 0" fill="#ea4647"/><path d="m47.675781 427.351562c0-.402343-.199219-.601562-.199219-1-.203124-.203124-.203124-.601562-.402343-.800781s-.398438-.601562-.597657-.800781c-2-1.800781-5-1.800781-7 0-.203124.199219-.402343.398438-.601562.800781-.398438.597657-.601562 1.199219-.800781 1.800781-.199219.597657-.199219 1.398438 0 2 0 .398438.199219.597657.199219 1 .203124.398438.203124.597657.402343.796876.199219.203124.398438.601562.597657.800781 2 2 5 2 7 0 .203124-.199219.402343-.398438.601562-.800781.199219-.199219.398438-.597657.398438-.796876.203124-.203124.203124-.601562.203124-1 .398438-.601562.398438-1.203124.199219-2zm0 0" fill="#6dcc6d"/><path d="m369.675781 26.148438c-8.199219-1.597657-14.402343-8-16-16 0-.199219-.199219-.398438-.402343-.398438-.199219 0-.199219.199219-.398438.398438-1.601562 8.203124-8 14.402343-16 16-.199219 0-.398438.203124-.398438.402343s.199219.199219.398438.398438c8.199219 1.601562 14.398438 8 16 16 0 .199219.199219.402343.398438.402343.203124 0 .203124-.203124.402343-.402343 1.597657-8.199219 8-14.398438 16-16 .199219 0 .398438-.199219.398438-.398438s-.199219-.199219-.398438-.402343zm0 0" fill="#ffcd29"/><g fill="#231f20"><path d="m287.074219 511.949219h-174c-24.800781 0-38-17.597657-41.597657-23 .199219.199219.199219.402343.398438.601562-.199219-.199219-.398438-.601562-.601562-.800781-4.796876-7.800781-7.398438-16.800781-7.398438-26v-371.800781c.199219-27 22.199219-49 49.199219-49h174c27.199219 0 49.199219 22 49.199219 49.199219v70.601562c0 2.800781-2.199219 5-5 5h-74.796876c-1.601562 0-3-.800781-4-2-25.203124-32.601562-72.203124-38.601562-104.800781-13.398438-32.601562 25.199219-38.601562 72.199219-13.402343 104.796876 2.402343 3.203124 5.203124 6.203124 8 8.800781.203124.199219.203124.199219.402343.402343 13.800781 12.796876 31.800781 19.796876 50.597657 19.796876 18.800781 0 37-7.199219 50.800781-20 .402343-.398438.601562-.597657.800781-.796876 2.398438-2.203124 4.601562-4.800781 6.601562-7.203124.398438-.398438.597657-.796876.796876-1 1-1.199219 2.402343-1.796876 3.800781-1.796876h74.800781c2.800781 0 5 2.199219 5 5v45.796876c0 1.402343-.601562 2.800781-1.601562 3.800781-3.398438 3-6.398438 6.402343-9.199219 10-1 1.199219-2.398438 2-4 2h-196.398438c-3.199219 0-5.800781 2.601562-5.800781 5.800781v76c0 3.199219 2.601562 5.800781 5.800781 5.800781h196.597657c1.601562 0 3.203124.597657 4.203124 2 2.398438 3.199219 5.199219 6.199219 8 8.800781.398438.398438.796876.796876 1.199219 1 1 1 1.597657 2.398438 1.597657 3.796876v39c0 9.203124-2.597657 18.203124-7.398438 26 0 0 0 .203124-.199219.203124-9 13.796876-24.601562 22.597657-41.601562 22.597657zm-207.199219-28.597657.199219.199219c7.199219 11.398438 19.601562 18.199219 33.199219 18.398438h174c13.402343 0 26-7 33.203124-18.398438 0 0 .199219-.199219.199219-.199219 3.800781-6.203124 5.800781-13.402343 5.800781-20.601562v-36.800781c-2.601562-2.398438-5-5-7.203124-7.800781h-194.597657c-8.800781 0-15.800781-7-15.800781-15.796876v-76c0-8.800781 7-15.800781 15.800781-15.800781h194.398438c2.199219-2.800781 4.601562-5.402343 7.199219-7.800781v-38.601562h-67.398438c-2.199219 2.601562-4.398438 5.203124-7 7.402343-.199219.199219-.199219.199219-.398438.398438-.203124 0-.203124.199219-.402343.402343-15.597657 14.597657-36.199219 22.597657-57.597657 22.597657-21.402343.199219-42.203124-8-57.601562-22.800781.199219.203124.398438.203124.601562.402343-.203124-.199219-.402343-.199219-.601562-.402343-34.199219-31.796876-36-85.398438-4.199219-119.597657 16-17.199219 38.398438-27 62-27 25.398438 0 49.398438 11.199219 65.398438 30.800781h67.402343v-65.402343c0-21.597657-17.601562-39.199219-39.203124-39.199219h-174c-21.597657 0-39.199219 17.601562-39.199219 39.199219v371.800781c0 7.199219 2 14.398438 5.800781 20.601562zm56.601562-210.402343"/><path d="m285.074219 491.148438h-170c-9 0-17.597657-4-23.398438-11-4.601562-5.398438-7-12.398438-7-19.398438v-367.800781c0-16.800781 13.597657-30.398438 30.398438-30.398438h50c6.199219 0 12 2.800781 15.800781 7.800781 8.398438 10.597657 23.601562 12.398438 34.199219 4 1.601562-1.203124 2.800781-2.601562 4-4 3.800781-4.800781 9.601562-7.800781 15.800781-7.800781h50c16.800781 0 30.398438 13.597657 30.398438 30.398438v68.800781c0 2.800781-2.199219 5-5 5h-54c-1.597657 0-3-.800781-4-2-25.199219-32.601562-72-38.601562-104.597657-13.398438-32.601562 25.199219-38.601562 72-13.402343 104.597657 2.402343 3.199219 5.203124 6.199219 8.203124 9 .199219.199219.199219.199219.398438.402343 13.800781 12.796876 31.800781 19.796876 50.601562 19.796876 18.796876 0 37-7.199219 50.796876-20 .402343-.398438.601562-.597657.800781-.796876 2.402343-2.203124 4.601562-4.800781 6.601562-7.203124.398438-.398438.597657-.796876.800781-1 1-1.199219 2.398438-1.796876 3.796876-1.796876h54c2.800781 0 5 2.199219 5 5v56.398438c0 2.800781-2.199219 5-5 5h-185.597657c-3.199219 0-5.800781 2.601562-5.800781 5.800781v76c0 3.199219 2.601562 5.800781 5.800781 5.800781h185.800781c2.796876 0 5 2.199219 5 5v47.597657c0 16.601562-13.601562 30.199219-30.402343 30.199219zm-170-418.597657c-11.199219 0-20.398438 9.199219-20.398438 20.398438v367.800781c0 4.800781 1.597657 9.199219 4.597657 13 3.800781 4.800781 9.601562 7.398438 15.601562 7.398438h170c11.199219 0 20.398438-9.199219 20.398438-20.398438v-42.601562h-180.597657c-8.800781 0-15.800781-7-15.800781-15.796876v-76c0-8.800781 7-15.800781 15.800781-15.800781h180.800781v-46.402343h-46.601562c-2.199219 2.601562-4.398438 5.203124-7 7.402343-.199219.199219-.199219.199219-.398438.398438-.203124 0-.203124.199219-.402343.402343-15.597657 14.597657-36.199219 22.597657-57.597657 22.597657-21.402343.199219-42.203124-8-57.601562-22.800781.199219.203124.398438.203124.601562.402343-.203124-.199219-.402343-.199219-.601562-.402343-34.199219-31.796876-36-85.398438-4.199219-119.597657 16-17.199219 38.398438-27 62-27 25.398438 0 49.398438 11.199219 65.398438 30.800781h46.601562v-63.402343c0-11.199219-9.199219-20.398438-20.402343-20.398438h-50c-3.199219 0-6 1.398438-8 4-11.796876 14.800781-33.398438 17.398438-48.199219 5.597657-2.199219-1.597657-4-3.597657-5.597657-5.597657-2-2.402343-4.800781-4-8-4zm21.402343 200.398438"/><path d="m281.875 92.148438h-20.398438c-2.800781 0-5-2.199219-5-5 0-2.796876 2.199219-5 5-5h20.398438c2.800781 0 5 2.203124 5 5 0 2.800781-2.199219 5-5 5zm0 0"/><path d="m118.273438 92.148438c-1.398438 0-2.597657-.597657-3.597657-1.398438-.199219-.199219-.402343-.398438-.601562-.800781-.199219-.199219-.398438-.597657-.398438-.800781-.199219-.199219-.199219-.597657-.199219-1-.203124-.597657-.203124-1.398438 0-2 0-.398438.199219-.597657.199219-1 .199219-.199219.199219-.597657.398438-.796876.199219-.203124.402343-.601562.601562-.800781 1.199219-1.199219 2.800781-1.601562 4.398438-1.402343.402343 0 .601562.203124 1 .203124.402343.199219.601562.199219.800781.398438s.601562.398438.800781.601562c.199219.199219.398438.398438.597657.796876.402343.601562.601562 1.203124.800781 1.800781.199219.601562.199219 1.402343 0 2 0 .402343-.199219.601562-.199219 1-.199219.402343-.199219.601562-.398438.800781-.203124.199219-.402343.601562-.601562.800781s-.398438.398438-.800781.597657c-.199219.203124-.597657.402343-.800781.402343-.398438.199219-.597657.199219-1 .199219-.199219.398438-.597657.398438-1 .398438zm0 0"/><path d="m136.875 92.148438c-1.398438 0-2.601562-.597657-3.601562-1.398438-.199219-.199219-.398438-.398438-.597657-.800781-.199219-.199219-.402343-.597657-.402343-.800781-.199219-.199219-.199219-.597657-.398438-1-.199219-.597657-.199219-1.398438 0-2 0-.398438.199219-.597657.398438-1 .203124-.398438.203124-.597657.402343-.796876.199219-.203124.398438-.601562.597657-.800781.203124-.199219.402343-.402343.800781-.601562.199219-.199219.601562-.398438.800781-.398438.398438-.199219.601562-.199219 1-.199219.601562-.203124 1.398438-.203124 2 0 .398438 0 .601562.199219 1 .199219.398438.199219.601562.199219.800781.398438s.597657.402343.800781.601562c.199219.199219.398438.398438.597657.800781.601562.796876.800781 1.796876.800781 2.796876v1c0 .402343-.199219.601562-.199219 1-.199219.402343-.199219.601562-.402343.800781-.199219.199219-.398438.601562-.597657.800781s-.402343.398438-.800781.601562c-.199219.199219-.601562.398438-.800781.398438-.199219.199219-.597657.199219-1 .199219-.597657.199219-.800781.199219-1.199219.199219zm0 0"/><path d="m155.476562 92.148438c-1.402343 0-2.601562-.597657-3.601562-1.398438-.199219-.199219-.398438-.398438-.601562-.800781-.199219-.199219-.398438-.597657-.398438-.800781-.199219-.199219-.199219-.597657-.199219-1-.199219-.597657-.199219-1.398438 0-2 0-.398438.199219-.597657.199219-1 .199219-.398438.199219-.597657.398438-.796876.203124-.203124.402343-.601562.601562-.800781 2-1.800781 5-1.800781 7 0 .199219.199219.398438.398438.601562.800781.398438.597657.597657 1.199219.796876 1.796876 0 .402343 0 .601562.203124 1 0 2.800781-2.402343 5-5 5zm0 0"/><path d="m366.074219 238.550781h-62.597657c-2.800781 0-5-2.199219-5-5s2.199219-5 5-5h62.597657c2.800781 0 5 2.199219 5 5s-2.199219 5-5 5zm0 0"/><path d="m430.074219 215.351562h-126.800781c-2.796876 0-5-2.203124-5-5 0-2.800781 2.203124-5 5-5h126.800781c2.800781 0 5 2.199219 5 5 0 2.796876-2.199219 5-5 5zm0 0"/><path d="m430.074219 192.351562h-126.800781c-2.796876 0-5-2.203124-5-5 0-2.800781 2.203124-5 5-5h126.800781c2.800781 0 5 2.199219 5 5 0 2.796876-2.199219 5-5 5zm0 0"/><path d="m222.675781 220.949219c-.800781 0-1.800781 0-2.601562-.199219-2.597657-.398438-4.398438-2.601562-4.199219-5.199219 0-.402343 0-1 0-1.601562v-19c0-.597657 0-1 0-1.597657-.199219-2.601562 1.601562-4.800781 4.199219-5.203124 9-1.398438 17.402343 4.601562 18.800781 13.601562s-4.601562 17.398438-13.601562 18.800781c-.796876.199219-1.597657.398438-2.597657.398438zm3.199219-22.199219v11.199219c3-1.800781 4.199219-5.800781 2.398438-8.800781-.597657-1-1.398438-1.796876-2.398438-2.398438zm0 0"/><path d="m164.273438 220.949219c-9 0-16.398438-7.398438-16.398438-16.398438s7.398438-16.402343 16.398438-16.402343c.800781 0 1.800781 0 2.601562.203124 2.601562.398438 4.398438 2.597657 4.199219 5.199219v1.597657 19 1.601562c.199219 2.601562-1.597657 4.800781-4.199219 5.199219-.800781-.199219-1.601562 0-2.601562 0zm-3.199219-22.199219c-3 1.800781-4.199219 5.800781-2.398438 8.800781.597657 1 1.398438 1.800781 2.398438 2.398438zm0 0"/><path d="m193.476562 246.351562c-18 0-32.402343-14.601562-32.402343-32.402343v-22c0-3.597657 2.800781-6.398438 6.402343-6.398438.398438 0 1 0 1.398438.199219 4.800781 1 16.800781 2.199219 24.800781-8 2.199219-2.800781 6.199219-3.199219 9-1 .199219.199219.398438.199219.597657.398438 1.601562 1.601562 6.601562 5.402343 16.402343 5.601562 3.398438.199219 6.199219 2.800781 6.199219 6.398438v24.800781c0 17.800781-14.398438 32.402343-32.398438 32.402343zm-22.402343-50.402343v18c0 12.402343 10 22.402343 22.402343 22.402343 12.398438 0 22.398438-10 22.398438-22.402343v-21.597657c-6-.402343-11.800781-2.601562-16.800781-6-7.398438 7.398438-17.597657 10.796876-28 9.597657zm-4.199219-.597657"/><path d="m230.675781 201.148438c-1.199219 0-2.601562-.597657-3.402343-1.398438-1.398438-1.398438-3.398438-2-5.398438-1.800781-2.800781.402343-5.199219-1.398438-5.800781-4.199219 0-.199219 0-.601562 0-.800781v-.800781c-6-.398438-11.800781-2.597657-16.800781-6-9.597657 9.800781-22.199219 10.203124-28.796876 9.402343-.203124.398438-.601562.800781-1 1-1.203124 1-2.601562 1.398438-4 1.199219-1.800781-.398438-3.601562.199219-5 1.398438-2.203124 1.800781-5.402343 1.402343-7-.796876-.800781-.800781-1-2-1-3.203124v-12.597657c0-18.402343 15-33.199219 33.398438-33.402343h8c5.601562 0 11 2.402343 15 6.402343 2-.601562 4.199219-1 6.398438-1 11.402343 0 20.601562 9.199219 20.601562 20.597657v20.601562c-.199219 3.199219-2.398438 5.398438-5.199219 5.398438zm-45.199219-41.597657c-12.800781 0-23.402343 10.398438-23.402343 23.398438v5.402343c1.402343-2.203124 4-3.203124 6.601562-2.601562 4.800781 1 16.800781 2.199219 24.800781-8 2.199219-2.800781 6.199219-3.199219 9-1 .199219.199219.398438.199219.597657.398438 1.601562 1.601562 6.601562 5.402343 16.402343 5.601562 2.796876 0 5.199219 2 6 4.601562v-11.601562c0-5.800781-4.800781-10.601562-10.601562-10.601562-2 0-3.800781.601562-5.398438 1.601562-2.402343 1.398438-5.402343.601562-6.800781-1.800781-2-3.199219-5.402343-5.199219-9.199219-5.199219zm0 0"/><path d="m200.476562 267.148438h-13.203124c-2.796876 0-5.398438-1.796876-6.398438-4.597657l-4.398438-12.402343c-.203124-.597657-.203124-1-.203124-1.597657v-10.199219c0-2.800781 2.203124-5 5-5 .800781 0 1.601562.199219 2.203124.597657 3 1.601562 6.597657 2.402343 10 2.402343 3.796876 0 7.398438-1 10.597657-2.800781 2.402343-1.402343 5.402343-.402343 6.800781 2 .398438.800781.601562 1.597657.601562 2.398438v10.601562c0 .597657 0 1.199219-.203124 1.597657l-4.398438 12.402343c-.800781 2.800781-3.398438 4.597657-6.398438 4.597657zm-10.800781-10h8.597657l3.203124-9.398438v-2.398438c-5 1.199219-10.203124 1.398438-15.203124.199219v2.199219zm0 0"/><path d="m193.476562 295.148438c-46.800781 0-84.601562-37.796876-84.601562-84.597657s37.800781-84.800781 84.601562-84.800781c46.796876 0 84.597657 37.800781 84.597657 84.601562 0 46.796876-37.800781 84.597657-84.597657 84.796876zm0-159.398438c-41.203124 0-74.601562 33.398438-74.601562 74.601562 0 41.199219 33.398438 74.597657 74.601562 74.597657 41.199219 0 74.597657-33.398438 74.597657-74.597657 0-41.203124-33.398438-74.601562-74.597657-74.601562zm0 0"/><path d="m193.476562 295.148438c-21.402343 0-42-8.199219-57.800781-22.796876-1.199219-1.203124-1.800781-3-1.601562-4.601562 1.199219-6 5.800781-10.800781 11.601562-12.398438l20.800781-5.203124 12.398438-6c2.398438-1.199219 5.398438-.199219 6.601562 2.203124 0 .199219.199219.398438.199219.597657l3.597657 10.199219h8.601562l3.601562-10.199219c1-2.597657 3.796876-4 6.398438-3 .199219 0 .398438.199219.601562.199219l12.398438 6 20.800781 5.203124c5.597657 1.398438 10 5.796876 11.398438 11.398438.402343 1.800781 0 3.601562-1.398438 4.800781-15.402343 15.199219-36.402343 23.597657-58.199219 23.597657zm-48.402343-27.796876c28 24 69.402343 23.796876 97.199219-.402343-.796876-.800781-1.796876-1.597657-3-1.800781l-21.199219-5.398438c-.398438 0-.597657-.199219-1-.398438l-7.800781-3.800781-2.398438 7c-1 2.800781-3.601562 4.597657-6.398438 4.597657h-13.203124c-2.796876 0-5.398438-1.796876-6.398438-4.597657l-2.398438-7-7.800781 3.800781c-.402343.199219-.601562.199219-1 .398438l-21.199219 5.398438c-1.402343.203124-2.601562 1-3.402343 2.203124zm0 0"/><path d="m453.273438 264.148438h-196.796876c-2.800781 0-5-2.199219-5-5 0-1.199219.398438-2.199219 1-3 20.796876-26.796876 20.796876-64.597657 0-91.398438-1.601562-2.199219-1.203124-5.398438.796876-7 .800781-.601562 2-1 3-1h196.800781c8.800781 0 15.800781 7 15.800781 15.800781v76c.199219 8.597657-7 15.597657-15.601562 15.597657zm-187.199219-10h187.199219c3.203124 0 5.800781-2.597657 5.800781-5.796876v-76c0-3.203124-2.597657-5.800781-5.800781-5.800781h-187.199219c16.199219 27 16.199219 60.800781 0 87.597657zm0 0"/><path d="m274.476562 392.550781h-62.601562c-2.800781 0-5-2.199219-5-5s2.199219-5 5-5h62.601562c2.796876 0 5 2.199219 5 5s-2.203124 5-5 5zm0 0"/><path d="m274.476562 369.351562h-126.800781c-2.800781 0-5-2.203124-5-5 0-2.800781 2.199219-5 5-5h126.800781c2.796876 0 5 2.199219 5 5 0 2.796876-2.203124 5-5 5zm0 0"/><path d="m274.476562 346.351562h-126.800781c-2.800781 0-5-2.203124-5-5 0-2.800781 2.199219-5 5-5h126.800781c2.796876 0 5 2.199219 5 5 0 2.796876-2.203124 5-5 5zm0 0"/><path d="m413.476562 374.949219c-.800781 0-1.800781 0-2.601562-.199219-2.601562-.398438-4.398438-2.601562-4.199219-5.199219 0-.402343 0-1 0-1.601562v-19c0-.597657 0-1 0-1.597657-.199219-2.601562 1.597657-4.800781 4.199219-5.203124 9-1.398438 17.398438 4.601562 18.800781 13.601562 1.398438 9-4.601562 17.398438-13.601562 18.800781-.800781.199219-1.597657.398438-2.597657.398438zm3.398438-22.199219v11.199219c3-1.800781 4.199219-5.800781 2.398438-8.800781-.796876-1-1.597657-1.796876-2.398438-2.398438zm0 0"/><path d="m355.273438 374.949219c-9 0-16.398438-7.398438-16.398438-16.398438s7.398438-16.402343 16.398438-16.402343c.800781 0 1.800781 0 2.601562.203124 2.601562.398438 4.398438 2.597657 4.199219 5.199219v1.597657 19 1.601562c.199219 2.601562-1.597657 4.800781-4.199219 5.199219-1-.199219-1.800781 0-2.601562 0zm-3.398438-22.199219c-3 1.800781-4.199219 5.800781-2.398438 8.800781.597657 1 1.398438 1.800781 2.398438 2.398438zm0 0"/><path d="m384.273438 400.351562c-18 0-32.398438-14.601562-32.398438-32.402343v-22c0-3.597657 2.800781-6.398438 6.398438-6.398438.402343 0 1 0 1.402343.199219 4.800781 1 16.800781 2.199219 24.800781-8 2.199219-2.800781 6.199219-3.199219 9-1 .199219.199219.398438.199219.597657.398438 1.601562 1.601562 6.601562 5.402343 16.402343 5.601562 3.398438.199219 6.199219 2.800781 6.199219 6.398438v24.800781c0 17.800781-14.402343 32.402343-32.402343 32.402343zm-22.398438-50.402343v18c0 12.402343 10 22.402343 22.398438 22.402343 12.402343 0 22.402343-10 22.402343-22.402343v-21.597657c-6-.402343-11.800781-2.601562-16.800781-6-7.199219 7.398438-17.601562 10.796876-28 9.597657zm-4.199219-.597657"/><path d="m421.476562 355.148438c-1.203124 0-2.601562-.597657-3.402343-1.398438-1.398438-1.398438-3.398438-2-5.398438-1.800781-2.800781.402343-5.199219-1.398438-5.800781-4.199219 0-.199219 0-.601562 0-.800781v-.800781c-6-.398438-11.800781-2.597657-16.800781-6-9.597657 9.800781-22.199219 10.203124-28.800781 9.402343-.199219.398438-.597657.800781-1 1-1.199219 1-2.597657 1.398438-4 1.199219-1.796876-.199219-3.597657.199219-5 1.398438-2.199219 1.800781-5.398438 1.402343-7-.796876-.796876-.800781-1-2-1-3.203124v-12.597657c0-18.402343 15-33.199219 33.402343-33.402343h8c5.597657 0 11 2.402343 15 6.402343 2-.601562 4.199219-1 6.398438-1 11.402343 0 20.601562 9.199219 20.601562 20.597657v20.601562c-.199219 3.199219-2.402343 5.398438-5.199219 5.398438zm-45.203124-41.597657c-12.796876 0-23.199219 10.398438-23.398438 23.398438v5.402343c1.398438-2.203124 4-3.203124 6.601562-2.601562 4.796876 1 16.796876 2.199219 24.796876-8 2.203124-2.800781 6.203124-3.199219 9-1 .203124.199219.402343.199219.601562.398438 1.601562 1.601562 6.601562 5.402343 16.398438 5.601562 2.800781 0 5.203124 2 6 4.601562v-11.601562c0-5.800781-4.796876-10.601562-10.597657-10.601562-2 0-3.800781.601562-5.402343 1.601562-2.398438 1.398438-5.398438.601562-6.796876-1.800781-2-3.199219-5.402343-5.199219-9.203124-5.199219zm0 0"/><path d="m391.476562 421.148438h-13.203124c-2.796876 0-5.398438-1.796876-6.398438-4.597657l-4.398438-12.402343c-.203124-.597657-.203124-1-.203124-1.597657v-10.199219c0-2.800781 2.203124-5 5-5 .800781 0 1.601562.199219 2.203124.597657 3 1.601562 6.597657 2.402343 10 2.402343 3.796876 0 7.398438-1 10.597657-2.800781 2.402343-1.402343 5.402343-.402343 6.800781 2 .398438.800781.601562 1.597657.601562 2.398438v10.601562c0 .597657 0 1.199219-.203124 1.597657l-4.398438 12.402343c-1 2.800781-3.601562 4.597657-6.398438 4.597657zm-11-10h8.597657l3.199219-9.398438v-2.398438c-5 1.199219-10.199219 1.398438-15.199219.199219v2.199219zm0 0"/><path d="m384.273438 449.148438c-46.796876 0-84.597657-37.796876-84.597657-84.597657s37.800781-84.601562 84.597657-84.601562c46.800781 0 84.601562 37.800781 84.601562 84.601562 0 46.597657-37.800781 84.398438-84.601562 84.597657zm0-159.398438c-41.199219 0-74.597657 33.398438-74.597657 74.601562 0 41.199219 33.398438 74.597657 74.597657 74.597657 41.203124 0 74.601562-33.398438 74.601562-74.597657 0-41.203124-33.199219-74.601562-74.601562-74.601562zm0 0"/><path d="m384.273438 449.148438c-21.398438 0-42-8.199219-57.796876-22.796876-1.203124-1.203124-1.800781-3-1.601562-4.601562 1.199219-6 5.800781-10.800781 11.601562-12.398438l20.796876-5.203124 12.402343-6c2.398438-1.199219 5.398438-.199219 6.597657 2.203124 0 .199219.203124.398438.203124.597657l3.597657 10.199219h8.601562l3.597657-10.199219c1-2.597657 3.800781-4 6.402343-3 .199219 0 .398438.199219.597657.199219l12.402343 6 20.800781 5.203124c5.597657 1.398438 10 5.796876 11.398438 11.398438.398438 1.800781 0 3.601562-1.398438 4.800781-15.402343 15.199219-36.402343 23.597657-58.203124 23.597657zm-48.199219-27.796876c28 24 69.402343 23.796876 97.199219-.402343-.796876-.800781-1.796876-1.597657-3-1.800781l-21.199219-5.398438c-.398438 0-.597657-.199219-1-.398438l-7.800781-3.800781-2.398438 7c-1 2.800781-3.601562 4.597657-6.398438 4.597657h-13.203124c-2.796876 0-5.398438-1.796876-6.398438-4.597657l-2.398438-7-7.800781 3.800781c-.402343.199219-.601562.199219-1 .398438l-21.199219 5.398438c-1.601562.203124-2.601562 1-3.402343 2.203124zm0 0"/><path d="m321.476562 418.148438h-196.800781c-8.800781 0-15.800781-7-15.800781-15.796876v-76c0-8.800781 7-15.800781 15.800781-15.800781h196.800781c2.796876 0 5 2.199219 5 5 0 1.199219-.402343 2.199219-1 3-20.800781 26.800781-20.800781 64.597657 0 91.398438 1.597657 2.199219 1.199219 5.402343-.800781 7-1 .800781-2.199219 1.199219-3.199219 1.199219zm-196.800781-97.398438c-3.199219 0-5.800781 2.601562-5.800781 5.800781v76c0 3.199219 2.601562 5.800781 5.800781 5.800781h187.199219c-16.199219-27-16.199219-60.601562 0-87.601562zm0 0"/></g></svg>